<mxfile host="Electron" agent="Mozilla/5.0 (Windows NT 10.0; Win64; x64) AppleWebKit/537.36 (KHTML, like Gecko) draw.io/28.2.5 Chrome/138.0.7204.251 Electron/37.6.1 Safari/537.36" version="28.2.5">
  <diagram name="Page-1" id="lD2SmMdkl0rFVzxc0Kg0">
    <mxGraphModel dx="5460" dy="2738" grid="0" gridSize="10" guides="1" tooltips="1" connect="1" arrows="1" fold="1" page="0" pageScale="1" pageWidth="3300" pageHeight="4681" math="0" shadow="0">
      <root>
        <mxCell id="0" />
        <mxCell id="1" parent="0" />
        <mxCell id="ebvxaLYQd2MxziNXby2z-60" style="edgeStyle=orthogonalEdgeStyle;rounded=0;orthogonalLoop=1;jettySize=auto;html=1;entryX=1;entryY=0.25;entryDx=0;entryDy=0;strokeColor=light-dark(#FF0000,#EDEDED);" parent="1" source="ebvxaLYQd2MxziNXby2z-4" target="ebvxaLYQd2MxziNXby2z-59" edge="1">
          <mxGeometry relative="1" as="geometry">
            <mxPoint x="-2348" y="-746" as="targetPoint" />
          </mxGeometry>
        </mxCell>
        <mxCell id="YQcTGRvWf_c-pzMoUaRC-35" value="Approving&lt;div&gt;&lt;div&gt;of Tricycle Driver&lt;/div&gt;&lt;div&gt;Registration&lt;/div&gt;&lt;/div&gt;" style="edgeLabel;html=1;align=center;verticalAlign=middle;resizable=0;points=[];" parent="ebvxaLYQd2MxziNXby2z-60" vertex="1" connectable="0">
          <mxGeometry x="-0.0924" y="2" relative="1" as="geometry">
            <mxPoint as="offset" />
          </mxGeometry>
        </mxCell>
        <mxCell id="YQcTGRvWf_c-pzMoUaRC-44" value="Text" style="edgeLabel;html=1;align=center;verticalAlign=middle;resizable=0;points=[];" parent="ebvxaLYQd2MxziNXby2z-60" vertex="1" connectable="0">
          <mxGeometry x="-0.0603" y="5" relative="1" as="geometry">
            <mxPoint as="offset" />
          </mxGeometry>
        </mxCell>
        <mxCell id="YQcTGRvWf_c-pzMoUaRC-24" style="edgeStyle=orthogonalEdgeStyle;rounded=0;orthogonalLoop=1;jettySize=auto;html=1;strokeColor=light-dark(#FF0000,#EDEDED);" parent="1" source="ebvxaLYQd2MxziNXby2z-4" target="lbl_p_renew" edge="1">
          <mxGeometry relative="1" as="geometry">
            <Array as="points">
              <mxPoint x="-2150" y="-869" />
              <mxPoint x="-1873" y="-869" />
              <mxPoint x="-1873" y="-854" />
            </Array>
          </mxGeometry>
        </mxCell>
        <mxCell id="YQcTGRvWf_c-pzMoUaRC-43" value="Renewal of Tricycle drivers" style="edgeLabel;html=1;align=center;verticalAlign=middle;resizable=0;points=[];" parent="YQcTGRvWf_c-pzMoUaRC-24" vertex="1" connectable="0">
          <mxGeometry x="-0.1783" y="-1" relative="1" as="geometry">
            <mxPoint as="offset" />
          </mxGeometry>
        </mxCell>
        <mxCell id="V9F9_sHv9baSurIoamr6-1" style="edgeStyle=orthogonalEdgeStyle;rounded=0;orthogonalLoop=1;jettySize=auto;html=1;entryX=0;entryY=0.75;entryDx=0;entryDy=0;strokeColor=light-dark(#FF0000,#EDEDED);" parent="1" source="ebvxaLYQd2MxziNXby2z-4" target="YQcTGRvWf_c-pzMoUaRC-2" edge="1">
          <mxGeometry relative="1" as="geometry">
            <Array as="points">
              <mxPoint x="-2587" y="-821" />
              <mxPoint x="-2587" y="-342" />
            </Array>
          </mxGeometry>
        </mxCell>
        <mxCell id="ebvxaLYQd2MxziNXby2z-4" value="Admin" style="html=1;dashed=0;whiteSpace=wrap;fillColor=#fff2cc;strokeColor=#000000;" parent="1" vertex="1">
          <mxGeometry x="-2297" y="-839" width="135" height="100" as="geometry" />
        </mxCell>
        <mxCell id="ebvxaLYQd2MxziNXby2z-5" value="Passenger" style="html=1;dashed=0;whiteSpace=wrap;" parent="1" vertex="1">
          <mxGeometry x="-127" y="893" width="135" height="100" as="geometry" />
        </mxCell>
        <mxCell id="ebvxaLYQd2MxziNXby2z-12" value="" style="swimlane;fontStyle=0;childLayout=stackLayout;horizontal=1;startSize=20;fillColor=#ffffff;horizontalStack=0;resizeParent=1;resizeParentMax=0;resizeLast=0;collapsible=0;marginBottom=0;swimlaneFillColor=#ffffff;rounded=1;" parent="1" vertex="1">
          <mxGeometry x="70" y="888" width="151" height="117" as="geometry" />
        </mxCell>
        <mxCell id="ebvxaLYQd2MxziNXby2z-13" value="Upload Registration Documents" style="text;html=1;align=center;verticalAlign=middle;whiteSpace=wrap;rounded=0;" parent="ebvxaLYQd2MxziNXby2z-12" vertex="1">
          <mxGeometry y="20" width="151" height="97" as="geometry" />
        </mxCell>
        <mxCell id="ebvxaLYQd2MxziNXby2z-14" value="4.0" style="swimlane;fontStyle=0;childLayout=stackLayout;horizontal=1;startSize=20;fillColor=#f8cecc;horizontalStack=0;resizeParent=1;resizeParentMax=0;resizeLast=0;collapsible=0;marginBottom=0;swimlaneFillColor=#F8CECC;rounded=1;strokeColor=#000000;" parent="1" vertex="1">
          <mxGeometry x="-2003" y="-842" width="151" height="117" as="geometry" />
        </mxCell>
        <mxCell id="ebvxaLYQd2MxziNXby2z-15" value="Register tricycles and review submitted documents from Tricycle drivers" style="text;html=1;align=center;verticalAlign=middle;whiteSpace=wrap;rounded=0;" parent="ebvxaLYQd2MxziNXby2z-14" vertex="1">
          <mxGeometry y="20" width="151" height="97" as="geometry" />
        </mxCell>
        <mxCell id="ebvxaLYQd2MxziNXby2z-17" value="" style="html=1;dashed=0;whiteSpace=wrap;shape=mxgraph.dfd.dataStoreID;align=left;spacingLeft=3;points=[[0,0],[0.5,0],[1,0],[0,0.5],[1,0.5],[0,1],[0.5,1],[1,1]];" parent="1" vertex="1">
          <mxGeometry x="282" y="949" width="130" height="42" as="geometry" />
        </mxCell>
        <mxCell id="ebvxaLYQd2MxziNXby2z-66" style="edgeStyle=orthogonalEdgeStyle;rounded=0;orthogonalLoop=1;jettySize=auto;html=1;exitX=0;exitY=0.5;exitDx=0;exitDy=0;entryX=1;entryY=0.5;entryDx=0;entryDy=0;strokeColor=light-dark(#FF0000,#EDEDED);" parent="1" source="ebvxaLYQd2MxziNXby2z-18" target="ebvxaLYQd2MxziNXby2z-15" edge="1">
          <mxGeometry relative="1" as="geometry" />
        </mxCell>
        <mxCell id="YQcTGRvWf_c-pzMoUaRC-31" value="Text" style="edgeLabel;html=1;align=center;verticalAlign=middle;resizable=0;points=[];" parent="ebvxaLYQd2MxziNXby2z-66" vertex="1" connectable="0">
          <mxGeometry x="0.2397" relative="1" as="geometry">
            <mxPoint x="1" as="offset" />
          </mxGeometry>
        </mxCell>
        <mxCell id="YQcTGRvWf_c-pzMoUaRC-34" value="Tricycle Driver&lt;div&gt;Documents&lt;/div&gt;" style="edgeLabel;html=1;align=center;verticalAlign=middle;resizable=0;points=[];" parent="ebvxaLYQd2MxziNXby2z-66" vertex="1" connectable="0">
          <mxGeometry x="0.1588" relative="1" as="geometry">
            <mxPoint x="1" as="offset" />
          </mxGeometry>
        </mxCell>
        <mxCell id="ebvxaLYQd2MxziNXby2z-18" value="2.0" style="html=1;dashed=0;whiteSpace=wrap;shape=mxgraph.dfd.dataStoreID;align=left;spacingLeft=3;points=[[0,0],[0.5,0],[1,0],[0,0.5],[1,0.5],[0,1],[0.5,1],[1,1]];fillColor=#dae8fc;strokeColor=#000000;" parent="1" vertex="1">
          <mxGeometry x="-1736" y="-794" width="130" height="42" as="geometry" />
        </mxCell>
        <mxCell id="ebvxaLYQd2MxziNXby2z-44" style="edgeStyle=orthogonalEdgeStyle;rounded=0;orthogonalLoop=1;jettySize=auto;html=1;entryX=0.5;entryY=0;entryDx=0;entryDy=0;strokeColor=light-dark(#FF0000,#EDEDED);" parent="1" source="ebvxaLYQd2MxziNXby2z-41" target="ebvxaLYQd2MxziNXby2z-42" edge="1">
          <mxGeometry relative="1" as="geometry" />
        </mxCell>
        <mxCell id="ebvxaLYQd2MxziNXby2z-62" value="Passenger Details" style="edgeLabel;html=1;align=center;verticalAlign=middle;resizable=0;points=[];" parent="ebvxaLYQd2MxziNXby2z-44" vertex="1" connectable="0">
          <mxGeometry x="-0.2405" y="2" relative="1" as="geometry">
            <mxPoint as="offset" />
          </mxGeometry>
        </mxCell>
        <mxCell id="ebvxaLYQd2MxziNXby2z-41" value="Passenger" style="html=1;dashed=0;whiteSpace=wrap;fillColor=#fff2cc;strokeColor=#000000;" parent="1" vertex="1">
          <mxGeometry x="-1663" y="-1341" width="135" height="100" as="geometry" />
        </mxCell>
        <mxCell id="ebvxaLYQd2MxziNXby2z-42" value="1.0" style="swimlane;fontStyle=0;childLayout=stackLayout;horizontal=1;startSize=20;fillColor=#f8cecc;horizontalStack=0;resizeParent=1;resizeParentMax=0;resizeLast=0;collapsible=0;marginBottom=0;swimlaneFillColor=#ffffff;rounded=1;strokeColor=#000000;" parent="1" vertex="1">
          <mxGeometry x="-1671" y="-1162" width="151" height="117" as="geometry" />
        </mxCell>
        <mxCell id="ebvxaLYQd2MxziNXby2z-43" value="Login/Register" style="text;html=1;align=center;verticalAlign=middle;whiteSpace=wrap;rounded=0;fillColor=#f8cecc;strokeColor=#000000;strokeWidth=1;" parent="ebvxaLYQd2MxziNXby2z-42" vertex="1">
          <mxGeometry y="20" width="151" height="97" as="geometry" />
        </mxCell>
        <mxCell id="ebvxaLYQd2MxziNXby2z-45" value="1.0" style="html=1;dashed=0;whiteSpace=wrap;shape=mxgraph.dfd.dataStoreID;align=left;spacingLeft=3;points=[[0,0],[0.5,0],[1,0],[0,0.5],[1,0.5],[0,1],[0.5,1],[1,1]];fillColor=#dae8fc;strokeColor=#000000;" parent="1" vertex="1">
          <mxGeometry x="-1660.5" y="-990" width="130" height="42" as="geometry" />
        </mxCell>
        <mxCell id="ebvxaLYQd2MxziNXby2z-46" style="edgeStyle=orthogonalEdgeStyle;rounded=0;orthogonalLoop=1;jettySize=auto;html=1;entryX=0.5;entryY=0;entryDx=0;entryDy=0;strokeColor=light-dark(#FF0000,#EDEDED);" parent="1" source="ebvxaLYQd2MxziNXby2z-43" target="ebvxaLYQd2MxziNXby2z-45" edge="1">
          <mxGeometry relative="1" as="geometry" />
        </mxCell>
        <mxCell id="ebvxaLYQd2MxziNXby2z-63" value="Passenger Details" style="edgeLabel;html=1;align=center;verticalAlign=middle;resizable=0;points=[];" parent="ebvxaLYQd2MxziNXby2z-46" vertex="1" connectable="0">
          <mxGeometry x="0.1273" y="2" relative="1" as="geometry">
            <mxPoint as="offset" />
          </mxGeometry>
        </mxCell>
        <mxCell id="ebvxaLYQd2MxziNXby2z-50" style="edgeStyle=orthogonalEdgeStyle;rounded=0;orthogonalLoop=1;jettySize=auto;html=1;entryX=1;entryY=0.5;entryDx=0;entryDy=0;strokeColor=light-dark(#FF0000,#EDEDED);" parent="1" target="ebvxaLYQd2MxziNXby2z-49" edge="1">
          <mxGeometry relative="1" as="geometry">
            <mxPoint x="-1663" y="-969" as="sourcePoint" />
          </mxGeometry>
        </mxCell>
        <mxCell id="ebvxaLYQd2MxziNXby2z-64" value="Passenger Details" style="edgeLabel;html=1;align=center;verticalAlign=middle;resizable=0;points=[];" parent="ebvxaLYQd2MxziNXby2z-50" vertex="1" connectable="0">
          <mxGeometry x="0.1178" relative="1" as="geometry">
            <mxPoint as="offset" />
          </mxGeometry>
        </mxCell>
        <mxCell id="ebvxaLYQd2MxziNXby2z-47" value="list of Passenger Account" style="text;html=1;align=center;verticalAlign=middle;whiteSpace=wrap;rounded=0;" parent="1" vertex="1">
          <mxGeometry x="-1642" y="-984" width="122" height="30" as="geometry" />
        </mxCell>
        <mxCell id="ebvxaLYQd2MxziNXby2z-48" value="2.0" style="swimlane;fontStyle=0;childLayout=stackLayout;horizontal=1;startSize=20;fillColor=#f8cecc;horizontalStack=0;resizeParent=1;resizeParentMax=0;resizeLast=0;collapsible=0;marginBottom=0;swimlaneFillColor=#ffffff;rounded=1;strokeColor=#000000;" parent="1" vertex="1">
          <mxGeometry x="-1979" y="-1038" width="151" height="117" as="geometry" />
        </mxCell>
        <mxCell id="ebvxaLYQd2MxziNXby2z-49" value="Manage Passenger Accounts" style="text;html=1;align=center;verticalAlign=middle;whiteSpace=wrap;rounded=0;fillColor=#f8cecc;strokeColor=#000000;" parent="ebvxaLYQd2MxziNXby2z-48" vertex="1">
          <mxGeometry y="20" width="151" height="97" as="geometry" />
        </mxCell>
        <mxCell id="ebvxaLYQd2MxziNXby2z-51" style="edgeStyle=orthogonalEdgeStyle;rounded=0;orthogonalLoop=1;jettySize=auto;html=1;entryX=0.5;entryY=0;entryDx=0;entryDy=0;strokeColor=light-dark(#FF0000,#EDEDED);" parent="1" source="ebvxaLYQd2MxziNXby2z-49" target="ebvxaLYQd2MxziNXby2z-4" edge="1">
          <mxGeometry relative="1" as="geometry" />
        </mxCell>
        <mxCell id="ebvxaLYQd2MxziNXby2z-65" value="Passenger Details" style="edgeLabel;html=1;align=center;verticalAlign=middle;resizable=0;points=[];" parent="ebvxaLYQd2MxziNXby2z-51" vertex="1" connectable="0">
          <mxGeometry x="-0.6753" y="1" relative="1" as="geometry">
            <mxPoint as="offset" />
          </mxGeometry>
        </mxCell>
        <mxCell id="ebvxaLYQd2MxziNXby2z-52" value="Tricycle driver documents" style="text;html=1;align=center;verticalAlign=middle;whiteSpace=wrap;rounded=0;" parent="1" vertex="1">
          <mxGeometry x="-1715" y="-788" width="122" height="30" as="geometry" />
        </mxCell>
        <mxCell id="ebvxaLYQd2MxziNXby2z-53" style="edgeStyle=orthogonalEdgeStyle;rounded=0;orthogonalLoop=1;jettySize=auto;html=1;entryX=0;entryY=0.5;entryDx=0;entryDy=0;strokeColor=light-dark(#FF0000,#EDEDED);" parent="1" source="ebvxaLYQd2MxziNXby2z-54" target="ebvxaLYQd2MxziNXby2z-55" edge="1">
          <mxGeometry relative="1" as="geometry" />
        </mxCell>
        <mxCell id="YQcTGRvWf_c-pzMoUaRC-29" value="Tricycle Driver&lt;div&gt;Documents&lt;/div&gt;" style="edgeLabel;html=1;align=center;verticalAlign=middle;resizable=0;points=[];" parent="ebvxaLYQd2MxziNXby2z-53" vertex="1" connectable="0">
          <mxGeometry y="1" relative="1" as="geometry">
            <mxPoint as="offset" />
          </mxGeometry>
        </mxCell>
        <mxCell id="YQcTGRvWf_c-pzMoUaRC-15" style="edgeStyle=orthogonalEdgeStyle;rounded=0;orthogonalLoop=1;jettySize=auto;html=1;entryX=0;entryY=0.5;entryDx=0;entryDy=0;exitX=1.015;exitY=0.885;exitDx=0;exitDy=0;exitPerimeter=0;strokeColor=light-dark(#FF0000,#EDEDED);" parent="1" source="ebvxaLYQd2MxziNXby2z-54" target="YQcTGRvWf_c-pzMoUaRC-14" edge="1">
          <mxGeometry relative="1" as="geometry" />
        </mxCell>
        <mxCell id="YQcTGRvWf_c-pzMoUaRC-41" value="Tricycle QR code" style="edgeLabel;html=1;align=center;verticalAlign=middle;resizable=0;points=[];" parent="YQcTGRvWf_c-pzMoUaRC-15" vertex="1" connectable="0">
          <mxGeometry x="-0.115" relative="1" as="geometry">
            <mxPoint as="offset" />
          </mxGeometry>
        </mxCell>
        <mxCell id="ebvxaLYQd2MxziNXby2z-54" value="Tricycle Driver" style="html=1;dashed=0;whiteSpace=wrap;fillColor=#fff2cc;strokeColor=#000000;" parent="1" vertex="1">
          <mxGeometry x="-2235" y="-679.5" width="135" height="100" as="geometry" />
        </mxCell>
        <mxCell id="ebvxaLYQd2MxziNXby2z-55" value="3.0" style="swimlane;fontStyle=0;childLayout=stackLayout;horizontal=1;startSize=20;fillColor=#f8cecc;horizontalStack=0;resizeParent=1;resizeParentMax=0;resizeLast=0;collapsible=0;marginBottom=0;swimlaneFillColor=#F8CECC;rounded=1;strokeColor=#000000;" parent="1" vertex="1">
          <mxGeometry x="-1973" y="-683" width="151" height="117" as="geometry" />
        </mxCell>
        <mxCell id="ebvxaLYQd2MxziNXby2z-56" value="Upload Registration Documents" style="text;html=1;align=center;verticalAlign=middle;whiteSpace=wrap;rounded=0;" parent="ebvxaLYQd2MxziNXby2z-55" vertex="1">
          <mxGeometry y="20" width="151" height="97" as="geometry" />
        </mxCell>
        <mxCell id="ebvxaLYQd2MxziNXby2z-57" style="edgeStyle=orthogonalEdgeStyle;rounded=0;orthogonalLoop=1;jettySize=auto;html=1;entryX=0.5;entryY=1;entryDx=0;entryDy=0;strokeColor=light-dark(#FF0000,#EDEDED);" parent="1" source="ebvxaLYQd2MxziNXby2z-56" target="ebvxaLYQd2MxziNXby2z-18" edge="1">
          <mxGeometry relative="1" as="geometry" />
        </mxCell>
        <mxCell id="YQcTGRvWf_c-pzMoUaRC-30" value="Tricycle Driver&lt;div&gt;Documents&lt;/div&gt;" style="edgeLabel;html=1;align=center;verticalAlign=middle;resizable=0;points=[];" parent="ebvxaLYQd2MxziNXby2z-57" vertex="1" connectable="0">
          <mxGeometry x="-0.4065" y="3" relative="1" as="geometry">
            <mxPoint y="1" as="offset" />
          </mxGeometry>
        </mxCell>
        <mxCell id="ebvxaLYQd2MxziNXby2z-58" value="5.0" style="swimlane;fontStyle=0;childLayout=stackLayout;horizontal=1;startSize=20;fillColor=#f8cecc;horizontalStack=0;resizeParent=1;resizeParentMax=0;resizeLast=0;collapsible=0;marginBottom=0;swimlaneFillColor=#F8CECC;rounded=1;strokeColor=#000000;" parent="1" vertex="1">
          <mxGeometry x="-2538" y="-699" width="151" height="117" as="geometry" />
        </mxCell>
        <mxCell id="ebvxaLYQd2MxziNXby2z-59" value="Approved Registration" style="text;html=1;align=center;verticalAlign=middle;whiteSpace=wrap;rounded=0;" parent="ebvxaLYQd2MxziNXby2z-58" vertex="1">
          <mxGeometry y="20" width="151" height="97" as="geometry" />
        </mxCell>
        <mxCell id="ebvxaLYQd2MxziNXby2z-61" style="edgeStyle=orthogonalEdgeStyle;rounded=0;orthogonalLoop=1;jettySize=auto;html=1;entryX=0;entryY=0.5;entryDx=0;entryDy=0;strokeColor=light-dark(#FF0000,#EDEDED);" parent="1" source="ebvxaLYQd2MxziNXby2z-59" target="ebvxaLYQd2MxziNXby2z-54" edge="1">
          <mxGeometry relative="1" as="geometry" />
        </mxCell>
        <mxCell id="YQcTGRvWf_c-pzMoUaRC-36" value="Approving&lt;div&gt;&lt;div&gt;of Tricycle Driver&lt;/div&gt;&lt;div&gt;Registration&lt;/div&gt;&lt;/div&gt;" style="edgeLabel;html=1;align=center;verticalAlign=middle;resizable=0;points=[];" parent="ebvxaLYQd2MxziNXby2z-61" vertex="1" connectable="0">
          <mxGeometry x="0.0794" y="2" relative="1" as="geometry">
            <mxPoint y="1" as="offset" />
          </mxGeometry>
        </mxCell>
        <mxCell id="ebvxaLYQd2MxziNXby2z-67" style="edgeStyle=orthogonalEdgeStyle;rounded=0;orthogonalLoop=1;jettySize=auto;html=1;entryX=1.007;entryY=0.625;entryDx=0;entryDy=0;entryPerimeter=0;strokeColor=light-dark(#FF0000,#EDEDED);" parent="1" source="ebvxaLYQd2MxziNXby2z-15" target="ebvxaLYQd2MxziNXby2z-4" edge="1">
          <mxGeometry relative="1" as="geometry" />
        </mxCell>
        <mxCell id="YQcTGRvWf_c-pzMoUaRC-32" value="Tricycle Driver&lt;div&gt;Documents&lt;/div&gt;" style="edgeLabel;html=1;align=center;verticalAlign=middle;resizable=0;points=[];" parent="ebvxaLYQd2MxziNXby2z-67" vertex="1" connectable="0">
          <mxGeometry x="-0.2122" y="-1" relative="1" as="geometry">
            <mxPoint as="offset" />
          </mxGeometry>
        </mxCell>
        <mxCell id="YQcTGRvWf_c-pzMoUaRC-1" value="6.0" style="swimlane;fontStyle=0;childLayout=stackLayout;horizontal=1;startSize=20;fillColor=#f8cecc;horizontalStack=0;resizeParent=1;resizeParentMax=0;resizeLast=0;collapsible=0;marginBottom=0;swimlaneFillColor=#F8CECC;rounded=1;strokeColor=#000000;" parent="1" vertex="1">
          <mxGeometry x="-2499" y="-435" width="151" height="117" as="geometry" />
        </mxCell>
        <mxCell id="YQcTGRvWf_c-pzMoUaRC-2" value="Generate QR codes" style="text;html=1;align=center;verticalAlign=middle;whiteSpace=wrap;rounded=0;" parent="YQcTGRvWf_c-pzMoUaRC-1" vertex="1">
          <mxGeometry y="20" width="151" height="97" as="geometry" />
        </mxCell>
        <mxCell id="YQcTGRvWf_c-pzMoUaRC-4" value="4.0" style="html=1;dashed=0;whiteSpace=wrap;shape=mxgraph.dfd.dataStoreID;align=left;spacingLeft=3;points=[[0,0],[0.5,0],[1,0],[0,0.5],[1,0.5],[0,1],[0.5,1],[1,1]];fillColor=#dae8fc;strokeColor=#000000;" parent="1" vertex="1">
          <mxGeometry x="-2204" y="-384" width="130" height="42" as="geometry" />
        </mxCell>
        <mxCell id="YQcTGRvWf_c-pzMoUaRC-11" style="edgeStyle=orthogonalEdgeStyle;rounded=0;orthogonalLoop=1;jettySize=auto;html=1;entryX=0;entryY=0.5;entryDx=0;entryDy=0;strokeColor=light-dark(#FF0000,#EDEDED);" parent="1" source="YQcTGRvWf_c-pzMoUaRC-5" target="YQcTGRvWf_c-pzMoUaRC-10" edge="1">
          <mxGeometry relative="1" as="geometry" />
        </mxCell>
        <mxCell id="YQcTGRvWf_c-pzMoUaRC-39" value="Tricycle QR&lt;div&gt;Code&lt;/div&gt;" style="edgeLabel;html=1;align=center;verticalAlign=middle;resizable=0;points=[];" parent="YQcTGRvWf_c-pzMoUaRC-11" vertex="1" connectable="0">
          <mxGeometry x="-0.1543" y="-1" relative="1" as="geometry">
            <mxPoint as="offset" />
          </mxGeometry>
        </mxCell>
        <mxCell id="YQcTGRvWf_c-pzMoUaRC-5" value="QR Codes" style="text;html=1;align=center;verticalAlign=middle;whiteSpace=wrap;rounded=0;" parent="1" vertex="1">
          <mxGeometry x="-2180" y="-378" width="122" height="30" as="geometry" />
        </mxCell>
        <mxCell id="YQcTGRvWf_c-pzMoUaRC-6" style="edgeStyle=orthogonalEdgeStyle;rounded=0;orthogonalLoop=1;jettySize=auto;html=1;strokeColor=light-dark(#FF0000,#EDEDED);" parent="1" source="YQcTGRvWf_c-pzMoUaRC-2" target="YQcTGRvWf_c-pzMoUaRC-4" edge="1">
          <mxGeometry relative="1" as="geometry" />
        </mxCell>
        <mxCell id="YQcTGRvWf_c-pzMoUaRC-38" value="Unique QR&amp;nbsp;&lt;div&gt;Code numbers&lt;/div&gt;" style="edgeLabel;html=1;align=center;verticalAlign=middle;resizable=0;points=[];" parent="YQcTGRvWf_c-pzMoUaRC-6" vertex="1" connectable="0">
          <mxGeometry x="-0.3641" y="3" relative="1" as="geometry">
            <mxPoint y="1" as="offset" />
          </mxGeometry>
        </mxCell>
        <mxCell id="YQcTGRvWf_c-pzMoUaRC-12" style="edgeStyle=orthogonalEdgeStyle;rounded=0;orthogonalLoop=1;jettySize=auto;html=1;strokeColor=light-dark(#FF0000,#EDEDED);" parent="1" source="YQcTGRvWf_c-pzMoUaRC-9" target="ebvxaLYQd2MxziNXby2z-54" edge="1">
          <mxGeometry relative="1" as="geometry">
            <Array as="points">
              <mxPoint x="-2172" y="-485" />
            </Array>
          </mxGeometry>
        </mxCell>
        <mxCell id="YQcTGRvWf_c-pzMoUaRC-40" value="Tricycle QR code" style="edgeLabel;html=1;align=center;verticalAlign=middle;resizable=0;points=[];" parent="YQcTGRvWf_c-pzMoUaRC-12" vertex="1" connectable="0">
          <mxGeometry x="-0.1441" relative="1" as="geometry">
            <mxPoint as="offset" />
          </mxGeometry>
        </mxCell>
        <mxCell id="YQcTGRvWf_c-pzMoUaRC-9" value="7.0" style="swimlane;fontStyle=0;childLayout=stackLayout;horizontal=1;startSize=20;fillColor=#f8cecc;horizontalStack=0;resizeParent=1;resizeParentMax=0;resizeLast=0;collapsible=0;marginBottom=0;swimlaneFillColor=#F8CECC;rounded=1;strokeColor=#000000;" parent="1" vertex="1">
          <mxGeometry x="-1971" y="-432" width="151" height="117" as="geometry" />
        </mxCell>
        <mxCell id="YQcTGRvWf_c-pzMoUaRC-10" value="Print QR code" style="text;html=1;align=center;verticalAlign=middle;whiteSpace=wrap;rounded=0;" parent="YQcTGRvWf_c-pzMoUaRC-9" vertex="1">
          <mxGeometry y="20" width="151" height="97" as="geometry" />
        </mxCell>
        <mxCell id="YQcTGRvWf_c-pzMoUaRC-14" value="3.0" style="html=1;dashed=0;whiteSpace=wrap;shape=mxgraph.dfd.dataStoreID;align=left;spacingLeft=3;points=[[0,0],[0.5,0],[1,0],[0,0.5],[1,0.5],[0,1],[0.5,1],[1,1]];fillColor=#dae8fc;strokeColor=#000000;" parent="1" vertex="1">
          <mxGeometry x="-2042" y="-546" width="130" height="42" as="geometry" />
        </mxCell>
        <mxCell id="YQcTGRvWf_c-pzMoUaRC-19" style="edgeStyle=orthogonalEdgeStyle;rounded=0;orthogonalLoop=1;jettySize=auto;html=1;entryX=0;entryY=0.5;entryDx=0;entryDy=0;strokeColor=light-dark(#FF0000,#EDEDED);" parent="1" source="YQcTGRvWf_c-pzMoUaRC-16" target="YQcTGRvWf_c-pzMoUaRC-18" edge="1">
          <mxGeometry relative="1" as="geometry" />
        </mxCell>
        <mxCell id="YQcTGRvWf_c-pzMoUaRC-42" value="Tricycle QR&amp;nbsp;&lt;div&gt;code&lt;/div&gt;" style="edgeLabel;html=1;align=center;verticalAlign=middle;resizable=0;points=[];" parent="YQcTGRvWf_c-pzMoUaRC-19" vertex="1" connectable="0">
          <mxGeometry x="-0.3409" relative="1" as="geometry">
            <mxPoint as="offset" />
          </mxGeometry>
        </mxCell>
        <mxCell id="YQcTGRvWf_c-pzMoUaRC-16" value="Tricycle QR code" style="text;html=1;align=center;verticalAlign=middle;resizable=0;points=[];autosize=1;strokeColor=none;fillColor=none;" parent="1" vertex="1">
          <mxGeometry x="-2020" y="-537.5" width="110" height="26" as="geometry" />
        </mxCell>
        <mxCell id="YQcTGRvWf_c-pzMoUaRC-17" value="8.0" style="swimlane;fontStyle=0;childLayout=stackLayout;horizontal=1;startSize=20;fillColor=#f8cecc;horizontalStack=0;resizeParent=1;resizeParentMax=0;resizeLast=0;collapsible=0;marginBottom=0;swimlaneFillColor=#F8CECC;rounded=1;strokeColor=#000000;" parent="1" vertex="1">
          <mxGeometry x="-1811.5" y="-593" width="151" height="117" as="geometry" />
        </mxCell>
        <mxCell id="YQcTGRvWf_c-pzMoUaRC-18" value="Scan the QR code of Tricycle Driver" style="text;html=1;align=center;verticalAlign=middle;whiteSpace=wrap;rounded=0;" parent="YQcTGRvWf_c-pzMoUaRC-17" vertex="1">
          <mxGeometry y="20" width="151" height="97" as="geometry" />
        </mxCell>
        <mxCell id="YQcTGRvWf_c-pzMoUaRC-21" style="edgeStyle=orthogonalEdgeStyle;rounded=0;orthogonalLoop=1;jettySize=auto;html=1;entryX=1;entryY=0.5;entryDx=0;entryDy=0;strokeColor=light-dark(#FF0000,#EDEDED);" parent="1" source="YQcTGRvWf_c-pzMoUaRC-18" target="ebvxaLYQd2MxziNXby2z-41" edge="1">
          <mxGeometry relative="1" as="geometry">
            <Array as="points">
              <mxPoint x="-1438" y="-524" />
              <mxPoint x="-1438" y="-1291" />
            </Array>
          </mxGeometry>
        </mxCell>
        <mxCell id="YQcTGRvWf_c-pzMoUaRC-46" value="Scanned QR Code&amp;nbsp;&lt;div&gt;of Tricycle driver&lt;/div&gt;" style="edgeLabel;html=1;align=center;verticalAlign=middle;resizable=0;points=[];" parent="YQcTGRvWf_c-pzMoUaRC-21" vertex="1" connectable="0">
          <mxGeometry x="-0.7266" y="2" relative="1" as="geometry">
            <mxPoint x="-32" y="2" as="offset" />
          </mxGeometry>
        </mxCell>
        <mxCell id="ds_incident" value="7.0" style="html=1;dashed=0;whiteSpace=wrap;shape=mxgraph.dfd.dataStoreID;align=left;spacingLeft=3;fillColor=#dae8fc;strokeColor=#000000;" parent="1" vertex="1">
          <mxGeometry x="-2668.73" y="-1286" width="130" height="42" as="geometry" />
        </mxCell>
        <mxCell id="lbl_ds_incident" value="Incident Reports" style="text;html=1;align=center;verticalAlign=middle;whiteSpace=wrap;" parent="1" vertex="1">
          <mxGeometry x="-2644.73" y="-1280" width="120" height="30" as="geometry" />
        </mxCell>
        <mxCell id="p_incident" value="11.0" style="swimlane;fontStyle=0;childLayout=stackLayout;horizontal=1;startSize=20;fillColor=#f8cecc;rounded=1;strokeColor=#000000;swimlaneFillColor=#F8CECC;" parent="1" vertex="1">
          <mxGeometry x="-2521.73" y="-1446" width="151" height="117" as="geometry" />
        </mxCell>
        <mxCell id="lbl_p_incident" value="Submit Incident Report" style="text;html=1;align=center;verticalAlign=middle;whiteSpace=wrap;" parent="p_incident" vertex="1">
          <mxGeometry y="20" width="151" height="97" as="geometry" />
        </mxCell>
        <mxCell id="flow_passenger_incident" style="edgeStyle=orthogonalEdgeStyle;html=1;strokeColor=light-dark(#FF0000,#EDEDED);" parent="1" source="ebvxaLYQd2MxziNXby2z-41" target="p_incident" edge="1">
          <mxGeometry relative="1" as="geometry">
            <Array as="points">
              <mxPoint x="-1736" y="-1311" />
              <mxPoint x="-1736" y="-1407" />
            </Array>
          </mxGeometry>
        </mxCell>
        <mxCell id="YQcTGRvWf_c-pzMoUaRC-47" value="Incident&amp;nbsp;" style="edgeLabel;html=1;align=center;verticalAlign=middle;resizable=0;points=[];" parent="flow_passenger_incident" vertex="1" connectable="0">
          <mxGeometry x="0.0312" y="-2" relative="1" as="geometry">
            <mxPoint as="offset" />
          </mxGeometry>
        </mxCell>
        <mxCell id="flow_incident_store" style="edgeStyle=orthogonalEdgeStyle;html=1;strokeColor=light-dark(#FF0000,#EDEDED);" parent="1" source="p_incident" target="ds_incident" edge="1">
          <mxGeometry relative="1" as="geometry" />
        </mxCell>
        <mxCell id="YQcTGRvWf_c-pzMoUaRC-48" value="Incident" style="edgeLabel;html=1;align=center;verticalAlign=middle;resizable=0;points=[];" parent="flow_incident_store" vertex="1" connectable="0">
          <mxGeometry x="-0.0354" y="3" relative="1" as="geometry">
            <mxPoint as="offset" />
          </mxGeometry>
        </mxCell>
        <mxCell id="p_sms" value="10.0" style="swimlane;fontStyle=0;childLayout=stackLayout;horizontal=1;startSize=20;fillColor=#f8cecc;rounded=1;strokeColor=#000000;swimlaneFillColor=#F8CECC;" parent="1" vertex="1">
          <mxGeometry x="-2419.73" y="-1234.2" width="151" height="117" as="geometry" />
        </mxCell>
        <mxCell id="lbl_p_sms" value="Send SMS to Emergency Contact" style="text;html=1;align=center;verticalAlign=middle;whiteSpace=wrap;" parent="p_sms" vertex="1">
          <mxGeometry y="20" width="151" height="97" as="geometry" />
        </mxCell>
        <mxCell id="ds_emergency" value="6.0" style="html=1;dashed=0;whiteSpace=wrap;shape=mxgraph.dfd.dataStoreID;align=left;spacingLeft=3;fillColor=#dae8fc;strokeColor=#000000;" parent="1" vertex="1">
          <mxGeometry x="-2408.73" y="-1032" width="130" height="42" as="geometry" />
        </mxCell>
        <mxCell id="lbl_ds_emergency" value="Emergency&amp;nbsp;&lt;div&gt;Contacts&lt;/div&gt;" style="text;html=1;align=center;verticalAlign=middle;whiteSpace=wrap;" parent="1" vertex="1">
          <mxGeometry x="-2388.73" y="-1026" width="120" height="30" as="geometry" />
        </mxCell>
        <mxCell id="flow_passenger_sms" style="edgeStyle=orthogonalEdgeStyle;html=1;strokeColor=light-dark(#FF0000,#EDEDED);" parent="1" source="ebvxaLYQd2MxziNXby2z-41" target="p_sms" edge="1">
          <mxGeometry relative="1" as="geometry">
            <Array as="points">
              <mxPoint x="-1742" y="-1270" />
              <mxPoint x="-1742" y="-1196" />
            </Array>
          </mxGeometry>
        </mxCell>
        <mxCell id="YQcTGRvWf_c-pzMoUaRC-49" value="Contact" style="edgeLabel;html=1;align=center;verticalAlign=middle;resizable=0;points=[];" parent="flow_passenger_sms" vertex="1" connectable="0">
          <mxGeometry x="0.802" y="2" relative="1" as="geometry">
            <mxPoint x="174" y="-2" as="offset" />
          </mxGeometry>
        </mxCell>
        <mxCell id="flow_sms_emergency" style="edgeStyle=orthogonalEdgeStyle;html=1;strokeColor=light-dark(#FF0000,#EDEDED);" parent="1" source="p_sms" target="ds_emergency" edge="1">
          <mxGeometry relative="1" as="geometry" />
        </mxCell>
        <mxCell id="YQcTGRvWf_c-pzMoUaRC-50" value="Contact" style="edgeLabel;html=1;align=center;verticalAlign=middle;resizable=0;points=[];" parent="flow_sms_emergency" vertex="1" connectable="0">
          <mxGeometry x="-0.0423" y="1" relative="1" as="geometry">
            <mxPoint x="1" as="offset" />
          </mxGeometry>
        </mxCell>
        <mxCell id="p_renew" value="9.0" style="swimlane;fontStyle=0;childLayout=stackLayout;horizontal=1;startSize=20;fillColor=#f8cecc;rounded=1;strokeColor=#000000;" parent="1" vertex="1">
          <mxGeometry x="-1629" y="-932" width="151" height="117" as="geometry" />
        </mxCell>
        <mxCell id="lbl_p_renew" value="Handle Tricycle Renewal" style="text;html=1;align=center;verticalAlign=middle;whiteSpace=wrap;fillColor=#f8cecc;strokeColor=#000000;" parent="p_renew" vertex="1">
          <mxGeometry y="20" width="151" height="97" as="geometry" />
        </mxCell>
        <mxCell id="YQcTGRvWf_c-pzMoUaRC-25" style="edgeStyle=orthogonalEdgeStyle;rounded=0;orthogonalLoop=1;jettySize=auto;html=1;entryX=1;entryY=0.75;entryDx=0;entryDy=0;strokeColor=light-dark(#FF0000,#EDEDED);" parent="1" source="lbl_p_renew" target="ebvxaLYQd2MxziNXby2z-52" edge="1">
          <mxGeometry relative="1" as="geometry">
            <Array as="points">
              <mxPoint x="-1542" y="-791" />
              <mxPoint x="-1569" y="-791" />
              <mxPoint x="-1569" y="-765" />
            </Array>
          </mxGeometry>
        </mxCell>
        <mxCell id="YQcTGRvWf_c-pzMoUaRC-45" value="Renewal of&amp;nbsp;&lt;div&gt;Tricycle drivers&lt;/div&gt;" style="edgeLabel;html=1;align=center;verticalAlign=middle;resizable=0;points=[];" parent="YQcTGRvWf_c-pzMoUaRC-25" vertex="1" connectable="0">
          <mxGeometry x="-0.602" relative="1" as="geometry">
            <mxPoint as="offset" />
          </mxGeometry>
        </mxCell>
      </root>
    </mxGraphModel>
  </diagram>
</mxfile>
